<svg xmlns="http://www.w3.org/2000/svg" xmlns:xlink="http://www.w3.org/1999/xlink" xmlns:lucid="lucid" width="667.76"
     height="420">
    <g transform="translate(-260 -180)" lucid:page-tab-id="0_0">
        <path d="M0 0h1760v1360H0z" fill="#fff"/>
        <path d="M360 240c0 22.1-17.9 40-40 40s-40-17.9-40-40 17.9-40 40-40 40 17.9 40 40z" stroke="#5e5e5e"
              stroke-width="3" fill="#fff"/>
        <use xlink:href="#a" transform="matrix(1,0,0,1,285,205) translate(28.82716049382716 39.65277777777778)"/>
        <path d="M360 540c0 22.1-17.9 40-40 40s-40-17.9-40-40 17.9-40 40-40 40 17.9 40 40z" stroke="#5e5e5e"
              stroke-width="3" fill="#fff"/>
        <use xlink:href="#b"
             transform="matrix(1,0,0,1,285.00000000000006,505) translate(28.82716049382716 39.65277777777778)"/>
        <path d="M660 240c0 22.1-17.9 40-40 40s-40-17.9-40-40 17.9-40 40-40 40 17.9 40 40z" stroke="#5e5e5e"
              stroke-width="3" fill="#fff"/>
        <use xlink:href="#c" transform="matrix(1,0,0,1,585,205) translate(28.82716049382716 39.65277777777778)"/>
        <path d="M660 540c0 22.1-17.9 40-40 40s-40-17.9-40-40 17.9-40 40-40 40 17.9 40 40z" stroke="#5e5e5e"
              stroke-width="3" fill="#fff"/>
        <use xlink:href="#d" transform="matrix(1,0,0,1,585,505) translate(28.82716049382716 39.65277777777778)"/>
        <path d="M880 380c0 22.1-17.9 40-40 40s-40-17.9-40-40 17.9-40 40-40 40 17.9 40 40z" stroke="#5e5e5e"
              stroke-width="3" fill="#fff"/>
        <use xlink:href="#e" transform="matrix(1,0,0,1,805,345) translate(28.82716049382716 39.65277777777778)"/>
        <path d="M348.42 490.4h-2v-89.73h2zm0-111.07h-2V272.1h2zM348.42 272.1h-2v-.1l.17-.13 1.82-1.73zM347.42 505.68l-4.64-14.27h9.27z"
              fill="#5e5e5e"/>
        <path d="M347.42 508.9l-6.02-18.5h12.03zm-3.26-16.5l3.26 10.04 3.25-10.03z" fill="#5e5e5e"/>
        <use xlink:href="#f"
             transform="matrix(1,0,0,1,342.4771212332719,379.3329154154881) translate(0 14.222222222222223)"/>
        <path d="M294.42 507.12h-2v-106.5h2zm0-127.84h-2v-89h2z" fill="#5e5e5e"/>
        <path d="M294.42 507.4l-1 .73-1 .94v-1.97h2zM298.06 289.28h-9.27L293.4 275z" fill="#5e5e5e"/>
        <path d="M299.43 290.28H287.4l6.02-18.5zm-9.27-2h6.52l-3.26-10.03z" fill="#5e5e5e"/>
        <use xlink:href="#g"
             transform="matrix(1,0,0,1,288.48491285069105,379.2820218593876) translate(0 14.222222222222223)"/>
        <path d="M465.03 212.33H350.9v-2h114.13zm106.5 0H474.9v-2h96.64z" fill="#5e5e5e"/>
        <path d="M350.92 212.33l-1.97-2h1.97zM586.8 211.33l-14.26 4.63v-9.27z" fill="#5e5e5e"/>
        <path d="M590.04 211.33l-18.5 6v-12zm-16.5 3.26l10.03-3.27-10.03-3.26z" fill="#5e5e5e"/>
        <use xlink:href="#h"
             transform="matrix(1,0,0,1,465.02766442133856,200.6607814911049) translate(0 14.222222222222223)"/>
        <path d="M837.55 239.92l2.53 2.53.92 3.42V320h-2v-73.87l-.7-2.64-1.8-1.8-2.63-.7h-28.93v-2h29.2zM662.5 241v-2h132.56v2z"
              fill="#5e5e5e"/>
        <path d="M662.53 241h-1.1l.07-.98-.03-1.02h1.06zM840 335.26L835.36 321h9.28z" fill="#5e5e5e"/>
        <path d="M840 338.5l-6-18.5h12zm-3.26-16.5l3.26 10.03 3.26-10.03z" fill="#5e5e5e"/>
        <use xlink:href="#i"
             transform="matrix(1,0,0,1,795.0617283950618,229.33333333333334) translate(0 14.222222222222223)"/>
        <path d="M647.4 489.58h-2V400.7h2zm0-110.2h-2V273h2z" fill="#5e5e5e"/>
        <path d="M647.4 273.03h-2v-.3l1.2-.86.8-.77zM646.4 504.84l-4.63-14.26h9.27z" fill="#5e5e5e"/>
        <path d="M646.4 508.08l-6-18.5h12zm-3.26-16.5l3.26 10.03 3.26-10.02z" fill="#5e5e5e"/>
        <use xlink:href="#j"
             transform="matrix(1,0,0,1,641.4629771413687,379.37700754889653) translate(0 14.222222222222223)"/>
        <path d="M785.87 348.94l.72 2.64 1.76 1.78 2.64.7h14.87v2h-15.13l-3.42-.9-2.53-2.54-.93-3.4v-56.34h2zm-3.45-85.18l2.53 2.53.92 3.4v1.84h-2v-1.57l-.7-2.65-1.8-1.77-2.63-.72h-106.3v-2H779z"
              fill="#5e5e5e"/>
        <path d="M806.32 355.74l-.2.33h-.28v-2h1.85zM671.45 268.47l-14.27-4.64 14.27-4.63z" fill="#5e5e5e"/>
        <path d="M672.45 269.85l-18.5-6.02 18.5-6zm-12.03-6.02l10.03 3.26v-6.52z" fill="#5e5e5e"/>
        <use xlink:href="#f"
             transform="matrix(1,0,0,1,779.9322904073595,271.54190708478205) translate(0 14.222222222222223)"/>
        <path d="M591.66 509.74h-2V400.66h2zm0-130.4h-2v-91.58h2z" fill="#5e5e5e"/>
        <path d="M591.66 509.8l-2 1.88v-1.97h2zM595.3 286.76h-9.27l4.63-14.26z" fill="#5e5e5e"/>
        <path d="M596.67 287.76h-12.02l6-18.5zm-9.27-2h6.52l-3.26-10.03z" fill="#5e5e5e"/>
        <use xlink:href="#g"
             transform="matrix(1,0,0,1,585.7234895241867,379.33126941843886) translate(0 14.222222222222223)"/>
        <path d="M912.82 400.65l-.92 3.42-2.53 2.53-3.42.92h-33.13v-2h32.87l2.63-.7 1.78-1.8.72-2.63v-9.8h2zm-3.45-47.36l2.53 2.5.92 3.43v10.04h-2v-9.78l-.7-2.65-1.8-1.77-2.63-.72H890.3v-2h15.63z"
              fill="#5e5e5e"/>
        <path d="M872.85 407.52H871l1.64-2h.2zM889.32 358l-14.26-4.64 14.26-4.63z" fill="#5e5e5e"/>
        <path d="M890.32 359.37l-18.5-6 18.5-6.02zm-12.03-6l10.02 3.25v-6.52z" fill="#5e5e5e"/>
        <use xlink:href="#g"
             transform="matrix(1,0,0,1,906.8832845658616,369.2742383613209) translate(0 14.222222222222223)"/>
        <path d="M465 567.58H370.3v-2H465zm122.12 0H474.9v-2H587.1z" fill="#5e5e5e"/>
        <path d="M588.13 566.6l.94.98h-1.97v-2h.3zM369.28 571.2L355 566.6l14.28-4.64z" fill="#5e5e5e"/>
        <path d="M370.28 572.6l-18.5-6.02 18.5-6zm-12.03-6.02l10.03 3.26v-6.52z" fill="#5e5e5e"/>
        <use xlink:href="#i"
             transform="matrix(1,0,0,1,465.0104169211161,555.910148877704) translate(0 14.222222222222223)"/>
        <path d="M465.03 521.45h-107.5v-2h107.5zm99.87 0h-90v-2h90z" fill="#5e5e5e"/>
        <path d="M357.56 521.45h-.47l-1.13-2h1.6zM580.17 520.45l-14.27 4.63v-9.27z" fill="#5e5e5e"/>
        <path d="M583.4 520.45l-18.5 6v-12zm-16.5 3.26l10.03-3.25-10.03-3.26z" fill="#5e5e5e"/>
        <use xlink:href="#k"
             transform="matrix(1,0,0,1,465.03042561001234,509.7801227269086) translate(0 14.222222222222223)"/>
        <path d="M789.22 526.08H659.66v-2h129.56zm33.6-6.87l-.9 3.43-2.54 2.53-3.42.92H799.1v-2h16.6l2.64-.72 1.77-1.77.73-2.65v-83.2h2z"
              fill="#5e5e5e"/>
        <path d="M659.68 526.08h-.62l-.8-2h1.42zM826.46 434.74h-9.27l4.63-14.26z" fill="#5e5e5e"/>
        <path d="M827.84 435.74h-12.02l6-18.5zm-9.27-2h6.52l-3.27-10.03z" fill="#5e5e5e"/>
        <use xlink:href="#l"
             transform="matrix(1,0,0,1,789.2242585198159,514.4122106462478) translate(0 14.222222222222223)"/>
        <defs>
            <path fill="#333"
                  d="M101-251c68 0 85 55 85 127S166 4 100 4C33 4 14-52 14-124c0-73 17-127 87-127zm-1 229c47 0 54-49 54-102s-4-102-53-102c-51 0-55 48-55 102 0 53 5 102 54 102"
                  id="m"/>
            <use transform="matrix(0.06172839506172839,0,0,0.06172839506172839,0,0)" xlink:href="#m" id="a"/>
            <path fill="#333" d="M27 0v-27h64v-190l-56 39v-29l58-41h29v221h61V0H27" id="n"/>
            <use transform="matrix(0.06172839506172839,0,0,0.06172839506172839,0,0)" xlink:href="#n" id="b"/>
            <path fill="#333"
                  d="M101-251c82-7 93 87 43 132L82-64C71-53 59-42 53-27h129V0H18c2-99 128-94 128-182 0-28-16-43-45-43s-46 15-49 41l-32-3c6-41 34-60 81-64"
                  id="o"/>
            <use transform="matrix(0.06172839506172839,0,0,0.06172839506172839,0,0)" xlink:href="#o" id="c"/>
            <path fill="#333" d="M155-56V0h-30v-56H8v-25l114-167h33v167h35v25h-35zm-30-156c-27 46-58 90-88 131h88v-131"
                  id="p"/>
            <use transform="matrix(0.06172839506172839,0,0,0.06172839506172839,0,0)" xlink:href="#p" id="d"/>
            <path fill="#333"
                  d="M126-127c33 6 58 20 58 59 0 88-139 92-164 29-3-8-5-16-6-25l32-3c6 27 21 44 54 44 32 0 52-15 52-46 0-38-36-46-79-43v-28c39 1 72-4 72-42 0-27-17-43-46-43-28 0-47 15-49 41l-32-3c6-42 35-63 81-64 48-1 79 21 79 65 0 36-21 52-52 59"
                  id="q"/>
            <use transform="matrix(0.06172839506172839,0,0,0.06172839506172839,0,0)" xlink:href="#q" id="e"/>
            <path fill="#333" d="M165-50V0h-47v-50H5v-38l105-160h55v161h33v37h-33zm-47-37l2-116L46-87h72" id="r"/>
            <use transform="matrix(0.04938271604938272,0,0,0.04938271604938272,0,0)" xlink:href="#r" id="f"/>
            <path fill="#333"
                  d="M128-127c34 4 56 21 59 58 7 91-148 94-172 28-4-9-6-17-7-26l51-5c1 24 16 35 40 36 23 0 39-12 38-36-1-31-31-36-65-34v-40c32 2 59-3 59-33 0-20-13-33-34-33s-33 13-35 32l-50-3c6-44 37-68 86-68 50 0 83 20 83 66 0 35-22 52-53 58"
                  id="s"/>
            <use transform="matrix(0.04938271604938272,0,0,0.04938271604938272,0,0)" xlink:href="#s" id="g"/>
            <path fill="#333" d="M23 0v-37h61v-169l-59 37v-38l62-41h46v211h57V0H23" id="t"/>
            <use transform="matrix(0.04938271604938272,0,0,0.04938271604938272,0,0)" xlink:href="#t" id="h"/>
            <path fill="#333"
                  d="M138-131c27 9 52 24 51 61 0 53-36 74-89 74S11-19 11-69c0-35 22-54 51-61-78-25-46-121 38-121 51 0 83 19 83 66 0 30-18 49-45 54zm-38-16c24 0 32-13 32-36 1-23-11-34-32-34-22 0-33 12-32 34 0 22 9 36 32 36zm1 116c27 0 37-17 37-43 0-25-13-39-39-39-24 0-37 15-37 40 0 27 11 42 39 42"
                  id="u"/>
            <use transform="matrix(0.04938271604938272,0,0,0.04938271604938272,0,0)" xlink:href="#u" id="i"/>
            <path fill="#333" d="M52 0c1-96 47-148 87-207H15v-41h169v40c-36 62-79 113-81 208H52" id="v"/>
            <use transform="matrix(0.04938271604938272,0,0,0.04938271604938272,0,0)" xlink:href="#v" id="j"/>
            <path fill="#333"
                  d="M139-81c0-46-55-55-73-27H18l9-140h149v37H72l-4 63c44-38 133-4 122 66C201 21 21 35 11-62l49-4c5 18 15 30 39 30 26 0 40-18 40-45"
                  id="w"/>
            <use transform="matrix(0.04938271604938272,0,0,0.04938271604938272,0,0)" xlink:href="#w" id="k"/>
            <path fill="#333"
                  d="M115-159c48 0 72 30 72 78 0 54-30 85-83 85-64 0-91-50-91-122 0-98 58-163 141-120 15 8 21 24 27 44l-47 6c-5-31-48-31-61-4-7 14-11 33-11 60 9-17 28-27 53-27zM102-35c24 0 36-20 36-45s-11-43-37-43c-23 0-36 14-36 38 0 27 11 50 37 50"
                  id="x"/>
            <use transform="matrix(0.04938271604938272,0,0,0.04938271604938272,0,0)" xlink:href="#x" id="l"/>
        </defs>
    </g>
</svg>